<svg width="100" height="61" viewBox="0 0 100 61" fill="none" xmlns="http://www.w3.org/2000/svg">
<g clip-path="url(#clip0_1_8)">
<path d="M49.3174 19.6052L53.2816 21.281L46.7202 37.7537H41.7304L49.3174 19.6052Z" fill="#FF9900"/>
<path d="M52.1608 24.0884C52.899 24.6273 55.6274 26.9497 57.4326 29.9565C58.812 32.1981 59.7191 35.9809 59.7945 36.4605C59.8666 36.8889 59.9009 37.3229 59.8969 37.7573L55.2269 37.7717C55.1514 36.3958 55.0724 36.0006 55.0203 35.5462C54.9356 35.0954 54.8252 34.6499 54.6898 34.2117H54.1869H53.0284C51.1873 34.2117 49.9497 34.2117 49.9497 34.2117H48.9385C48.9385 33.5435 48.9385 32.8753 48.9385 32.2071L49.2313 31.4671L49.5815 30.5834H52.5649C52.0624 29.6882 51.3293 28.944 50.4419 28.428C50.8263 27.4581 51.2118 26.4887 51.5986 25.52C51.7369 25.1608 52.0243 24.4405 52.1608 24.0884Z" fill="white"/>
<path d="M43.3596 21.6223C44.1948 21.5774 46.6268 21.4427 48.3044 22.0157L46.149 27.1868L45.3856 27.2102L43.3596 21.6223Z" fill="white"/>
<path d="M79.3656 37.8902C79.3656 37.8902 79.3656 20.6596 79.3656 20.647H77.0378L70.7404 26.445L64.443 20.647H62.1188V37.8902H66.6092V28.7298L70.7404 32.4909L74.8716 28.7298V37.8902H79.3656Z" fill="white"/>
<path d="M95.4737 20.647H99.9803V21.5918C99.9803 24.595 99.9138 27.6018 99.9982 30.6014C100.093 34.0303 98.0925 36.2234 95.2707 37.1664C91.8185 38.3213 88.3249 38.2333 85.1852 36.1066C83.6154 35.0433 82.5933 33.4896 82.5574 31.5372C82.4946 28.1783 82.5395 24.8159 82.5395 21.4571V20.6757H87.046V21.5972C87.046 24.6884 87.1377 27.785 87.0119 30.8726C86.9347 32.7173 88.3231 33.9027 89.7152 34.2961C91.0551 34.6751 92.4543 34.641 93.7224 33.8722C94.7732 33.2381 95.5024 32.4478 95.4881 31.0953C95.4485 27.6377 95.4737 24.189 95.4737 20.647Z" fill="white"/>
<path d="M44.4894 13.3635C44.4894 14.6621 44.4894 15.6985 44.4894 16.7511C44.4894 16.8966 44.4696 17.0403 44.4606 17.1606C35.2283 16.6864 27.5156 19.6753 22.2995 27.4257C17.1157 35.1349 16.9738 43.3883 20.9613 51.8393L17.5666 53.5528C12.9109 43.8176 13.0223 34.2099 19.1005 25.2614C25.071 16.4691 33.8147 12.8157 44.4894 13.3635Z" fill="white"/>
<path d="M31.618 24.0094C32.3886 25.1518 34.1632 27.7688 34.1632 27.8335C34.1398 27.8514 30.5277 30.3176 28.9543 34.2117C28.4609 35.3679 28.1169 36.5823 27.9305 37.8256C27.5561 40.0754 27.7173 42.3818 28.4011 44.5576C29.5165 48.1715 31.4994 51.1442 34.6877 53.2493C37.5346 55.1299 40.6833 56.0369 44.0637 55.7298C45.9659 55.5777 47.8389 55.1693 49.6318 54.5156L51.6633 58.5606C48.7557 59.9809 45.5298 60.6239 42.2998 60.4268C36.5898 60.0783 31.7832 57.6247 28.0167 53.4217C24.0867 49.0265 22.5401 43.7386 23.2299 37.8902C23.9196 32.0419 26.7827 27.4724 31.618 24.0094Z" fill="white"/>
<path d="M2.66911 32.9597L0 32.1694C8.65395 2.57751 42.6824 -9.1425 67.3564 7.85107L65.8728 9.78015C60.444 6.02209 54.1886 3.62937 47.6376 2.80511C41.0867 1.98084 34.4335 2.74937 28.243 5.04545C19.8998 8.08277 14.7717 12.9324 13.2432 14.461C6.27223 21.4014 3.66419 29.1537 2.66911 32.9597Z" fill="white"/>
</g>
<defs>
<clipPath id="clip0_1_8">
<rect width="100" height="60.4627" fill="white"/>
</clipPath>
</defs>
</svg>
